<?xml version="1.0" encoding="utf-8"?>
<svg viewBox="0 0 44 44" width="44" height="44" xmlns="http://www.w3.org/2000/svg">
  <defs>
    <style>
      .a {
        fill: #fff;
      }

      .b {
        fill: #edb824;
      }
    </style>
  </defs>
  <path class="b" d="M 39.844 21.842 C 35.913 31.649 30.419 37.434 20.82 40.868 C 10.926 44.407 7.286 33.655 3.876 22.003 C 1.189 12.831 10.618 5.334 20.82 2.818 C 31.501 0.184 43.754 12.091 39.844 21.842 Z" style=""/>
  <path class="a" d="M 20.403 23.967 C 12.98 23.361 10.102 21.29 10.102 16.595 L 10.102 16.19 C 10.102 10.485 14.596 7.758 20.908 7.758 C 28.582 7.758 31.762 11.343 31.762 16.898 L 31.762 17.15 L 25.35 17.15 L 25.35 12.859 L 16.565 12.859 L 16.565 16.039 C 16.565 18.008 17.525 18.968 21.463 19.271 C 28.178 19.826 32.066 21.392 32.066 26.794 L 32.066 27.147 C 32.066 32.449 28.279 35.833 20.907 35.833 C 13.182 35.833 9.748 31.843 9.748 26.996 L 9.748 26.794 L 16.262 26.794 L 16.262 30.732 L 25.502 30.732 L 25.502 27.4 C 25.502 25.078 24.188 24.269 20.403 23.967 Z"/>
</svg>