<?xml version="1.0" encoding="utf-8"?>
<svg viewBox="0 0 44 44" width="44" height="44" xmlns="http://www.w3.org/2000/svg">
  <defs>
    <style>
      .a {
        fill: #fff;
      }

      .b {
        fill: #edb824;
      }
    </style>
  </defs>
  <path class="b" d="M 43.119 21.822 C 38.466 32.856 31.964 39.365 20.603 43.229 C 8.893 47.211 4.585 35.113 0.549 22.003 C -2.631 11.684 8.528 3.249 20.603 0.418 C 33.245 -2.546 47.747 10.851 43.119 21.822 Z" style=""/>
  <path class="a" d="M 20.549 23.084 C 13.223 22.515 10.382 20.572 10.382 16.167 L 10.382 15.787 C 10.382 10.434 14.818 7.875 21.048 7.875 C 28.623 7.875 31.761 11.239 31.761 16.451 L 31.761 16.687 L 25.433 16.687 L 25.433 12.661 L 16.761 12.661 L 16.761 15.645 C 16.761 17.493 17.709 18.394 21.596 18.678 C 28.224 19.198 32.061 20.668 32.061 25.737 L 32.061 26.068 C 32.061 31.043 28.323 34.218 21.047 34.218 C 13.422 34.218 10.033 30.474 10.033 25.926 L 10.033 25.737 L 16.462 25.737 L 16.462 29.432 L 25.582 29.432 L 25.582 26.305 C 25.582 24.126 24.285 23.367 20.549 23.084 Z" style=""/>
</svg>