<?xml version="1.0" encoding="utf-8"?>
<svg viewBox="0 0 235 44" width="235" height="44" xmlns="http://www.w3.org/2000/svg">
  <defs>
    <style>
      .a {
        fill: #001769;
      }

      .b {
        fill: #edb824;
      }
    </style>
  </defs>
  <path class="a" d="M20.1434,29.3163C12.72,28.7106,9.8424,26.64,9.8424,21.9444V21.54c0-5.7052,4.4938-8.4321,10.8056-8.4321,7.6744,0,10.8549,3.5849,10.8549,9.14V22.5h-6.412V18.2083H16.3053v3.1805c0,1.9691.96,2.9291,4.8982,3.2315,6.7145.5556,10.6034,2.1212,10.6034,7.5232v.3534c0,5.3017-3.7871,8.6853-11.159,8.6853-7.7253,0-11.159-3.9892-11.159-8.8365v-.2022h6.5139v3.9383h9.2392V32.75C25.2421,30.4275,23.9288,29.6188,20.1434,29.3163Z"/>
  <path class="a" d="M54.2762,36.0818v-4.14h6.21v.2014c0,4.7971-4.0385,9.0386-11.7146,9.0386-8.6343,0-12.5216-5.7562-12.5216-13.38V26.4884c0-7.6243,3.9892-13.38,12.27-13.38,8.23,0,11.9661,5.7562,11.9661,13.38v3.08H42.8148v6.5131Zm-.4043-17.8735H42.8148v6.5131H53.8718Z"/>
  <path class="a" d="M87.6,30.7809v1.06c0,5.1-3.5339,9.3411-11.1081,9.3411-8.23,0-11.8148-5.605-11.8148-13.2292V26.3372c0-7.6744,3.5849-13.2292,11.8148-13.2292,7.5741,0,11.1081,4.3426,11.1081,9.7454v1.1111H81.39v-5.15H71.2424V35.4259H81.39V30.7809Z"/>
  <path class="a" d="M99.3659,19.5208V40.5255H92.8026V21.3387l-.4553-7.5741h5.8072l.5556,3.2315a8.5339,8.5339,0,0,1,7.2207-3.8881c.3024,0,.6049.051.7577.051v6.3619Z"/>
  <path class="a" d="M128.8043,36.0818v-4.14h6.21v.2014c0,4.7971-4.0385,9.0386-11.7146,9.0386-8.6343,0-12.5216-5.7562-12.5216-13.38V26.4884c0-7.6243,3.9892-13.38,12.27-13.38,8.23,0,11.9661,5.7562,11.9661,13.38v3.08H117.3429v6.5131ZM128.4,18.2083H117.3429v6.5131H128.4Z"/>
  <path class="a" d="M149.2042,19.5208V35.4259h6.9166v5.1a10.2915,10.2915,0,0,1-4.14.6567c-5.5031,0-9.3411-2.4746-9.3411-9.392V19.5208H138.55V13.7646h4.0895V6.1913h6.5649v7.5733h7.4229v5.7562Z"/>
  <path class="a" d="M188.535,2H195.1v5.1H188.535ZM195.1,40.5255H188.535V13.7646H195.1Z"/>
  <path class="a" d="M208.1261,18.814V40.5255h-6.5633V21.3387l-.4553-7.5741h5.8072l.6065,3.5348c1.6651-2.4236,4.4429-4.1914,8.6836-4.1914,5.8581,0,8.2316,4.2415,8.2316,9.0888V40.5255h-6.5139V18.814Z"/>
  <path class="b" d="M182,26c-2.0659,5.1543-4.9536,8.195-10,10-5.2,1.86-7.1128-3.7911-8.9065-9.9163C161.6817,21.2627,166.6376,17.3216,172,16,177.6148,14.6162,184.0547,20.8736,182,26Z"/>
</svg>